<?xml version="1.0" encoding="iso-8859-1"?>
<!-- Generator: Adobe Illustrator 18.0.0, SVG Export Plug-In . SVG Version: 6.00 Build 0)  -->
<!DOCTYPE svg PUBLIC "-//W3C//DTD SVG 1.1//EN" "http://www.w3.org/Graphics/SVG/1.1/DTD/svg11.dtd">
<svg version="1.1" id="Capa_1" xmlns="http://www.w3.org/2000/svg" xmlns:xlink="http://www.w3.org/1999/xlink" x="0px" y="0px"
	 viewBox="0 0 297.223 297.223" style="enable-background:new 0 0 297.223 297.223;" xml:space="preserve">
<path d="M236.066,100.339c-1.313-1.313-3.094-2.116-4.95-2.116h-0.838V82.222c0-3.866-2.345-6.999-6.211-6.999h-2.789V49.057
	c0-3.866-2.966-6.834-6.832-6.834h-32.985c-3.866,0-7.183,2.968-7.183,6.834v16.442l-20.7-21.328
	c-1.427-1.463-3.368-2.233-5.413-2.1c-2.039,0.13-4.053,1.145-5.281,2.777l-13.606,17.908V30.369
	c0-16.734-13.346-30.148-30.028-30.369c-0.066-0.002,0.025,0.223-0.042,0.223h-0.215c-0.066,0-0.298-0.225-0.364-0.223
	C81.948,0.221,68.278,13.635,68.278,30.369v67.854h-2.172c-1.856,0-3.638,0.803-4.95,2.116s-2.05,3.126-2.05,4.983l0.039,173.65
	c0,1.855,0.737,3.644,2.05,4.956l10.738,10.991c1.313,1.313,3.094,2.303,4.95,2.303h143.455c1.857,0,3.637-0.984,4.95-2.297
	l10.746-10.87c1.312-1.313,2.05-3.155,2.05-5.012l0.031-173.691C238.116,103.496,237.379,101.651,236.066,100.339z M166.278,98.223
	v-9h50v9H166.278z M207.278,56.223v19h-19v-19H207.278z M149.186,59.789l15.202,15.434h-4.363c-3.866,0-7.746,3.133-7.746,6.999
	v16.001h0.444l-23.444-11.239v-0.94L149.186,59.789z M82.278,30.369c0-9.117,7.397-16.54,16.501-16.599
	c9.102,0.059,16.499,7.481,16.499,16.599v11.854h-18.96c-3.866,0-7,3.134-7,7s3.134,7,7,7h18.96v19h-18.96c-3.866,0-7,3.134-7,7
	c0,3.866,3.134,7,7,7h19.229c-0.419,1,0.064,9,0.064,9H82.278V30.369z"/>
<g>
</g>
<g>
</g>
<g>
</g>
<g>
</g>
<g>
</g>
<g>
</g>
<g>
</g>
<g>
</g>
<g>
</g>
<g>
</g>
<g>
</g>
<g>
</g>
<g>
</g>
<g>
</g>
<g>
</g>
</svg>
